{"asset":{"generator":"3D Builder","version":"2.0"},"scene":0,"scenes":[{"nodes":[0]}],"nodes":[{"children":[1,2,3,4]},{"mesh":0,"matrix":[0.99999994039535522,0,0,0,0,-1.1920928244535389E-7,-0.99999982118606567,0,0,0.99999982118606567,-1.1920928244535389E-7,0,0,0.0029999995604157448,-3.5762787176096822E-10,1]},{"mesh":1,"matrix":[0.99999994039535522,0,0,0,0,-1.1920928244535389E-7,-0.99999982118606567,0,0,0.99999982118606567,-1.1920928244535389E-7,0,0,0.0029999995604157448,-3.5762787176096822E-10,1]},{"mesh":2,"matrix":[0.99999994039535522,0,0,0,0,-1.1920928244535389E-7,-0.99999982118606567,0,0,0.99999982118606567,-1.1920928244535389E-7,0,0,0.0029999995604157448,-3.5762787176096822E-10,1]},{"mesh":3,"matrix":[0.99999994039535522,0,0,0,0,-1.1920928244535389E-7,-0.99999982118606567,0,0,0.99999982118606567,-1.1920928244535389E-7,0,0,0.0029999995604157448,-3.5762787176096822E-10,1]}],"meshes":[{"primitives":[{"attributes":{"POSITION":0,"COLOR_0":1},"mode":4,"indices":2}]},{"primitives":[{"attributes":{"POSITION":3,"COLOR_0":4},"mode":4,"indices":5}]},{"primitives":[{"attributes":{"POSITION":6,"COLOR_0":7},"mode":4,"indices":8}]},{"primitives":[{"attributes":{"POSITION":9,"COLOR_0":10},"mode":4,"indices":11}]}],"accessors":[{"bufferView":0,"byteOffset":0,"count":4180,"componentType":5126,"type":"VEC3","min":[-0.018000002950429916,-0.01900000125169754,-0.0030000000260770321],"max":[0.020000001415610313,0.021000001579523087,0.067000001668930054]},{"bufferView":1,"byteOffset":0,"count":4180,"componentType":5121,"type":"VEC4","normalized":true},{"bufferView":2,"byteOffset":0,"count":25104,"componentType":5125,"type":"SCALAR"},{"bufferView":3,"byteOffset":0,"count":2679,"componentType":5126,"type":"VEC3","min":[-0.0024999999441206455,0.012520462274551392,-1.1198289076426123E-16],"max":[0.0025000001769512892,0.021113812923431396,0.024358486756682396]},{"bufferView":4,"byteOffset":0,"count":2679,"componentType":5121,"type":"VEC4","normalized":true},{"bufferView":5,"byteOffset":0,"count":16062,"componentType":5125,"type":"SCALAR"},{"bufferView":6,"byteOffset":0,"count":2768,"componentType":5126,"type":"VEC3","min":[0.0045000002719461918,0.011589295230805874,-1.1140162763909777E-16],"max":[0.00950000062584877,0.021113812923431396,0.024465968832373619]},{"bufferView":7,"byteOffset":0,"count":2768,"componentType":5121,"type":"VEC4","normalized":true},{"bufferView":8,"byteOffset":0,"count":16596,"componentType":5125,"type":"SCALAR"},{"bufferView":9,"byteOffset":0,"count":2777,"componentType":5126,"type":"VEC3","min":[-0.0075000002980232239,0.011589295230805874,-1.2217051336291333E-16],"max":[-0.0025000001769512892,0.021113812923431396,0.024465849623084068]},{"bufferView":10,"byteOffset":0,"count":2777,"componentType":5121,"type":"VEC4","normalized":true},{"bufferView":11,"byteOffset":0,"count":16650,"componentType":5125,"type":"SCALAR"}],"bufferViews":[{"buffer":0,"byteOffset":0,"byteLength":50160,"byteStride":12,"target":34962},{"buffer":0,"byteOffset":50160,"byteLength":16720,"byteStride":4,"target":34962},{"buffer":0,"byteOffset":66880,"byteLength":100416,"target":34963},{"buffer":0,"byteOffset":167296,"byteLength":32148,"byteStride":12,"target":34962},{"buffer":0,"byteOffset":199444,"byteLength":10716,"byteStride":4,"target":34962},{"buffer":0,"byteOffset":210160,"byteLength":64248,"target":34963},{"buffer":0,"byteOffset":274408,"byteLength":33216,"byteStride":12,"target":34962},{"buffer":0,"byteOffset":307624,"byteLength":11072,"byteStride":4,"target":34962},{"buffer":0,"byteOffset":318696,"byteLength":66384,"target":34963},{"buffer":0,"byteOffset":385080,"byteLength":33324,"byteStride":12,"target":34962},{"buffer":0,"byteOffset":418404,"byteLength":11108,"byteStride":4,"target":34962},{"buffer":0,"byteOffset":429512,"byteLength":66600,"target":34963}],"buffers":[{"byteLength":496112,"uri":"FAKEL.bin"}]}