{"asset":{"generator":"3D Builder","version":"2.0"},"scene":0,"scenes":[{"nodes":[0]}],"nodes":[{"mesh":0,"matrix":[0.99999994039535522,0,0,0,0,-1.1920928244535389E-7,-0.99999982118606567,0,0,0.99999982118606567,-1.1920928244535389E-7,0,0,0.0029999995604157448,-3.5762787176096822E-10,1]}],"meshes":[{"primitives":[{"attributes":{"POSITION":0,"COLOR_0":1},"mode":4,"indices":2}]}],"accessors":[{"bufferView":0,"byteOffset":0,"count":9716,"componentType":5126,"type":"VEC3","min":[0.013500001281499863,0.013500001281499863,-0.0030000000260770321],"max":[0.046500001102685928,0.046500001102685928,0.05350000411272049]},{"bufferView":1,"byteOffset":0,"count":9716,"componentType":5121,"type":"VEC4","normalized":true},{"bufferView":2,"byteOffset":0,"count":58308,"componentType":5125,"type":"SCALAR"}],"bufferViews":[{"buffer":0,"byteOffset":0,"byteLength":116592,"byteStride":12,"target":34962},{"buffer":0,"byteOffset":116592,"byteLength":38864,"byteStride":4,"target":34962},{"buffer":0,"byteOffset":155456,"byteLength":233232,"target":34963}],"buffers":[{"byteLength":388688,"uri":"GPZ.bin"}]}