{"asset":{"generator":"3D Builder","version":"2.0"},"scene":0,"scenes":[{"nodes":[0]}],"nodes":[{"children":[1,2,3,4,5,6,7,8,9,10,11]},{"mesh":0,"matrix":[0.99999994039535522,0,0,0,0,-1.1920928244535389E-7,-0.99999982118606567,0,0,0.99999982118606567,-1.1920928244535389E-7,0,0,0.0029999995604157448,-3.5762787176096822E-10,1]},{"mesh":1,"matrix":[0.99999994039535522,0,0,0,0,-1.1920928244535389E-7,-0.99999982118606567,0,0,0.99999982118606567,-1.1920928244535389E-7,0,0,0.0029999995604157448,-3.5762787176096822E-10,1]},{"mesh":2,"matrix":[0.99999994039535522,0,0,0,0,-1.1920928244535389E-7,-0.99999982118606567,0,0,0.99999982118606567,-1.1920928244535389E-7,0,0,0.0029999995604157448,-3.5762787176096822E-10,1]},{"mesh":3,"matrix":[0.99999994039535522,0,0,0,0,-1.1920928244535389E-7,-0.99999982118606567,0,0,0.99999982118606567,-1.1920928244535389E-7,0,0,0.0029999995604157448,-3.5762787176096822E-10,1]},{"mesh":4,"matrix":[0.99999994039535522,0,0,0,0,-1.1920928244535389E-7,-0.99999982118606567,0,0,0.99999982118606567,-1.1920928244535389E-7,0,0,0.0029999995604157448,-3.5762787176096822E-10,1]},{"mesh":5,"matrix":[0.99999994039535522,0,0,0,0,-1.1920928244535389E-7,-0.99999982118606567,0,0,0.99999982118606567,-1.1920928244535389E-7,0,0,0.0029999995604157448,-3.5762787176096822E-10,1]},{"mesh":6,"matrix":[0.99999994039535522,0,0,0,0,-1.1920928244535389E-7,-0.99999982118606567,0,0,0.99999982118606567,-1.1920928244535389E-7,0,0,0.0029999995604157448,-3.5762787176096822E-10,1]},{"mesh":7,"matrix":[0.99999994039535522,0,0,0,0,-1.1920928244535389E-7,-0.99999982118606567,0,0,0.99999982118606567,-1.1920928244535389E-7,0,0,0.0029999995604157448,-3.5762787176096822E-10,1]},{"mesh":8,"matrix":[0.99999994039535522,0,0,0,0,-1.1920928244535389E-7,-0.99999982118606567,0,0,0.99999982118606567,-1.1920928244535389E-7,0,0,0.0029999995604157448,-3.5762787176096822E-10,1]},{"mesh":9,"matrix":[0.99999994039535522,0,0,0,0,-1.1920928244535389E-7,-0.99999982118606567,0,0,0.99999982118606567,-1.1920928244535389E-7,0,0,0.0029999995604157448,-3.5762787176096822E-10,1]},{"mesh":10,"matrix":[0.99999994039535522,0,0,0,0,-1.1920928244535389E-7,-0.99999982118606567,0,0,0.99999982118606567,-1.1920928244535389E-7,0,0,0.0029999995604157448,-3.5762787176096822E-10,1]}],"meshes":[{"primitives":[{"attributes":{"POSITION":0,"COLOR_0":1},"mode":4,"indices":2}]},{"primitives":[{"attributes":{"POSITION":3,"COLOR_0":4},"mode":4,"indices":5}]},{"primitives":[{"attributes":{"POSITION":6,"COLOR_0":7},"mode":4,"indices":8}]},{"primitives":[{"attributes":{"POSITION":9,"COLOR_0":10},"mode":4,"indices":11}]},{"primitives":[{"attributes":{"POSITION":12,"COLOR_0":13},"mode":4,"indices":14}]},{"primitives":[{"attributes":{"POSITION":15,"COLOR_0":16},"mode":4,"indices":17}]},{"primitives":[{"attributes":{"POSITION":18,"COLOR_0":19},"mode":4,"indices":20}]},{"primitives":[{"attributes":{"POSITION":21,"COLOR_0":22},"mode":4,"indices":23}]},{"primitives":[{"attributes":{"POSITION":24,"COLOR_0":25},"mode":4,"indices":26}]},{"primitives":[{"attributes":{"POSITION":27,"COLOR_0":28},"mode":4,"indices":29}]},{"primitives":[{"attributes":{"POSITION":30,"COLOR_0":31},"mode":4,"indices":32}]}],"accessors":[{"bufferView":0,"byteOffset":0,"count":4324,"componentType":5126,"type":"VEC3","min":[-0.014000000432133675,-0.016499999910593033,-0.0030000000260770321],"max":[0.01900000125169754,0.016499999910593033,0.045000001788139343]},{"bufferView":1,"byteOffset":0,"count":4324,"componentType":5121,"type":"VEC4","normalized":true},{"bufferView":2,"byteOffset":0,"count":25932,"componentType":5125,"type":"SCALAR"},{"bufferView":3,"byteOffset":0,"count":814,"componentType":5126,"type":"VEC3","min":[-0.0035000001080334187,-0.014992710202932358,0.0070000002160668373],"max":[-0.0014999998966231942,-0.0060072913765907288,0.018083812668919563]},{"bufferView":4,"byteOffset":0,"count":814,"componentType":5121,"type":"VEC4","normalized":true},{"bufferView":5,"byteOffset":0,"count":4872,"componentType":5125,"type":"SCALAR"},{"bufferView":6,"byteOffset":0,"count":848,"componentType":5126,"type":"VEC3","min":[-0.00800000037997961,0.008500000461935997,0.0057456446811556816],"max":[0.017854129895567894,0.010500000789761543,0.0084747849032282829]},{"bufferView":7,"byteOffset":0,"count":848,"componentType":5121,"type":"VEC4","normalized":true},{"bufferView":8,"byteOffset":0,"count":5076,"componentType":5125,"type":"SCALAR"},{"bufferView":9,"byteOffset":0,"count":3095,"componentType":5126,"type":"VEC3","min":[0.012500000186264515,0.00081227923510596156,0.0053398469462990761],"max":[0.016499761492013931,0.015886001288890839,0.013396237976849079]},{"bufferView":10,"byteOffset":0,"count":3095,"componentType":5121,"type":"VEC4","normalized":true},{"bufferView":11,"byteOffset":0,"count":18558,"componentType":5125,"type":"SCALAR"},{"bufferView":12,"byteOffset":0,"count":814,"componentType":5126,"type":"VEC3","min":[0.0065000001341104507,-0.014992710202932358,0.0070000002160668373],"max":[0.008500000461935997,-0.0060072913765907288,0.018083812668919563]},{"bufferView":13,"byteOffset":0,"count":814,"componentType":5121,"type":"VEC4","normalized":true},{"bufferView":14,"byteOffset":0,"count":4872,"componentType":5125,"type":"SCALAR"},{"bufferView":15,"byteOffset":0,"count":814,"componentType":5126,"type":"VEC3","min":[0.0015000002458691597,-0.014992710202932358,0.0070000002160668373],"max":[0.0035000001080334187,-0.0060072913765907288,0.018083812668919563]},{"bufferView":16,"byteOffset":0,"count":814,"componentType":5121,"type":"VEC4","normalized":true},{"bufferView":17,"byteOffset":0,"count":4872,"componentType":5125,"type":"SCALAR"},{"bufferView":18,"byteOffset":0,"count":851,"componentType":5126,"type":"VEC3","min":[-0.0090000005438923836,0.0065000001341104507,0.0057456446811556816],"max":[0.017854129895567894,0.008500000461935997,0.0084749441593885422]},{"bufferView":19,"byteOffset":0,"count":851,"componentType":5121,"type":"VEC4","normalized":true},{"bufferView":20,"byteOffset":0,"count":5094,"componentType":5125,"type":"SCALAR"},{"bufferView":21,"byteOffset":0,"count":3095,"componentType":5126,"type":"VEC3","min":[0.0075000002980232239,0.00081227923510596156,0.0053398469462990761],"max":[0.01149976160377264,0.015886001288890839,0.013396237976849079]},{"bufferView":22,"byteOffset":0,"count":3095,"componentType":5121,"type":"VEC4","normalized":true},{"bufferView":23,"byteOffset":0,"count":18558,"componentType":5125,"type":"SCALAR"},{"bufferView":24,"byteOffset":0,"count":3095,"componentType":5126,"type":"VEC3","min":[-0.0055000004358589649,0.00081227923510596156,0.0053398469462990761],"max":[-0.0015002391301095486,0.015886001288890839,0.013396237976849079]},{"bufferView":25,"byteOffset":0,"count":3095,"componentType":5121,"type":"VEC4","normalized":true},{"bufferView":26,"byteOffset":0,"count":18558,"componentType":5125,"type":"SCALAR"},{"bufferView":27,"byteOffset":0,"count":160,"componentType":5126,"type":"VEC3","min":[-0.0070000002160668373,-0.011990126222372055,0.015661163255572319],"max":[0.013286990113556385,-0.0089901257306337357,0.018661163747310638]},{"bufferView":28,"byteOffset":0,"count":160,"componentType":5121,"type":"VEC4","normalized":true},{"bufferView":29,"byteOffset":0,"count":948,"componentType":5125,"type":"SCALAR"},{"bufferView":30,"byteOffset":0,"count":852,"componentType":5126,"type":"VEC3","min":[-0.0090000005438923836,0.010500000789761543,0.0057456446811556816],"max":[0.017854129895567894,0.012500000186264515,0.0084739988669753075]},{"bufferView":31,"byteOffset":0,"count":852,"componentType":5121,"type":"VEC4","normalized":true},{"bufferView":32,"byteOffset":0,"count":5100,"componentType":5125,"type":"SCALAR"}],"bufferViews":[{"buffer":0,"byteOffset":0,"byteLength":51888,"byteStride":12,"target":34962},{"buffer":0,"byteOffset":51888,"byteLength":17296,"byteStride":4,"target":34962},{"buffer":0,"byteOffset":69184,"byteLength":103728,"target":34963},{"buffer":0,"byteOffset":172912,"byteLength":9768,"byteStride":12,"target":34962},{"buffer":0,"byteOffset":182680,"byteLength":3256,"byteStride":4,"target":34962},{"buffer":0,"byteOffset":185936,"byteLength":19488,"target":34963},{"buffer":0,"byteOffset":205424,"byteLength":10176,"byteStride":12,"target":34962},{"buffer":0,"byteOffset":215600,"byteLength":3392,"byteStride":4,"target":34962},{"buffer":0,"byteOffset":218992,"byteLength":20304,"target":34963},{"buffer":0,"byteOffset":239296,"byteLength":37140,"byteStride":12,"target":34962},{"buffer":0,"byteOffset":276436,"byteLength":12380,"byteStride":4,"target":34962},{"buffer":0,"byteOffset":288816,"byteLength":74232,"target":34963},{"buffer":0,"byteOffset":363048,"byteLength":9768,"byteStride":12,"target":34962},{"buffer":0,"byteOffset":372816,"byteLength":3256,"byteStride":4,"target":34962},{"buffer":0,"byteOffset":376072,"byteLength":19488,"target":34963},{"buffer":0,"byteOffset":395560,"byteLength":9768,"byteStride":12,"target":34962},{"buffer":0,"byteOffset":405328,"byteLength":3256,"byteStride":4,"target":34962},{"buffer":0,"byteOffset":408584,"byteLength":19488,"target":34963},{"buffer":0,"byteOffset":428072,"byteLength":10212,"byteStride":12,"target":34962},{"buffer":0,"byteOffset":438284,"byteLength":3404,"byteStride":4,"target":34962},{"buffer":0,"byteOffset":441688,"byteLength":20376,"target":34963},{"buffer":0,"byteOffset":462064,"byteLength":37140,"byteStride":12,"target":34962},{"buffer":0,"byteOffset":499204,"byteLength":12380,"byteStride":4,"target":34962},{"buffer":0,"byteOffset":511584,"byteLength":74232,"target":34963},{"buffer":0,"byteOffset":585816,"byteLength":37140,"byteStride":12,"target":34962},{"buffer":0,"byteOffset":622956,"byteLength":12380,"byteStride":4,"target":34962},{"buffer":0,"byteOffset":635336,"byteLength":74232,"target":34963},{"buffer":0,"byteOffset":709568,"byteLength":1920,"byteStride":12,"target":34962},{"buffer":0,"byteOffset":711488,"byteLength":640,"byteStride":4,"target":34962},{"buffer":0,"byteOffset":712128,"byteLength":3792,"target":34963},{"buffer":0,"byteOffset":715920,"byteLength":10224,"byteStride":12,"target":34962},{"buffer":0,"byteOffset":726144,"byteLength":3408,"byteStride":4,"target":34962},{"buffer":0,"byteOffset":729552,"byteLength":20400,"target":34963}],"buffers":[{"byteLength":749952,"uri":"NPZ.bin"}]}