{"asset":{"generator":"3D Builder","version":"2.0"},"scene":0,"scenes":[{"nodes":[0]}],"nodes":[{"children":[1,2,3,4,5]},{"mesh":0,"matrix":[0.99999994039535522,0,0,0,0,-1.1920928244535389E-7,-0.99999982118606567,0,0,0.99999982118606567,-1.1920928244535389E-7,0,0,0.0029999995604157448,-3.5762787176096822E-10,1]},{"mesh":1,"matrix":[0.99999994039535522,0,0,0,0,-1.1920928244535389E-7,-0.99999982118606567,0,0,0.99999982118606567,-1.1920928244535389E-7,0,0,0.0029999995604157448,-3.5762787176096822E-10,1]},{"mesh":2,"matrix":[0.99999994039535522,0,0,0,0,-1.1920928244535389E-7,-0.99999982118606567,0,0,0.99999982118606567,-1.1920928244535389E-7,0,0,0.0029999995604157448,-3.5762787176096822E-10,1]},{"mesh":3,"matrix":[0.99999994039535522,0,0,0,0,-1.1920928244535389E-7,-0.99999982118606567,0,0,0.99999982118606567,-1.1920928244535389E-7,0,0,0.0029999995604157448,-3.5762787176096822E-10,1]},{"mesh":4,"matrix":[0.99999994039535522,0,0,0,0,-1.1920928244535389E-7,-0.99999982118606567,0,0,0.99999982118606567,-1.1920928244535389E-7,0,0,0.0029999995604157448,-3.5762787176096822E-10,1]}],"meshes":[{"primitives":[{"attributes":{"POSITION":0,"COLOR_0":1},"mode":4,"indices":2}]},{"primitives":[{"attributes":{"POSITION":3,"COLOR_0":4},"mode":4,"indices":5}]},{"primitives":[{"attributes":{"POSITION":6,"COLOR_0":7},"mode":4,"indices":8}]},{"primitives":[{"attributes":{"POSITION":9,"COLOR_0":10},"mode":4,"indices":11}]},{"primitives":[{"attributes":{"POSITION":12,"COLOR_0":13},"mode":4,"indices":14}]}],"accessors":[{"bufferView":0,"byteOffset":0,"count":6194,"componentType":5126,"type":"VEC3","min":[0.017500000074505806,0.010500000789761543,-0.0030000000260770321],"max":[0.03749803826212883,0.051500003784894943,0.032999999821186066]},{"bufferView":1,"byteOffset":0,"count":6194,"componentType":5121,"type":"VEC4","normalized":true},{"bufferView":2,"byteOffset":0,"count":37152,"componentType":5125,"type":"SCALAR"},{"bufferView":3,"byteOffset":0,"count":8,"componentType":5126,"type":"VEC3","min":[0.020500000566244125,0.019500000402331352,0.0080066816881299019],"max":[0.034500002861022949,0.022500000894069672,0.012006682343780994]},{"bufferView":4,"byteOffset":0,"count":8,"componentType":5121,"type":"VEC4","normalized":true},{"bufferView":5,"byteOffset":0,"count":36,"componentType":5125,"type":"SCALAR"},{"bufferView":6,"byteOffset":0,"count":8,"componentType":5126,"type":"VEC3","min":[0.020500000566244125,0.039500001817941666,0.0080066816881299019],"max":[0.034500002861022949,0.042500000447034836,0.012006682343780994]},{"bufferView":7,"byteOffset":0,"count":8,"componentType":5121,"type":"VEC4","normalized":true},{"bufferView":8,"byteOffset":0,"count":36,"componentType":5125,"type":"SCALAR"},{"bufferView":9,"byteOffset":0,"count":895,"componentType":5126,"type":"VEC3","min":[0.0215000007301569,0.010519188828766346,0.0079621486365795135],"max":[0.023500001057982445,0.015299804508686066,0.017431890591979027]},{"bufferView":10,"byteOffset":0,"count":895,"componentType":5121,"type":"VEC4","normalized":true},{"bufferView":11,"byteOffset":0,"count":5358,"componentType":5125,"type":"SCALAR"},{"bufferView":12,"byteOffset":0,"count":952,"componentType":5126,"type":"VEC3","min":[0.030500002205371857,0.046098049730062485,0.0078940438106656075],"max":[0.0325000025331974,0.050061050802469254,0.014438776299357414]},{"bufferView":13,"byteOffset":0,"count":952,"componentType":5121,"type":"VEC4","normalized":true},{"bufferView":14,"byteOffset":0,"count":5700,"componentType":5125,"type":"SCALAR"}],"bufferViews":[{"buffer":0,"byteOffset":0,"byteLength":74328,"byteStride":12,"target":34962},{"buffer":0,"byteOffset":74328,"byteLength":24776,"byteStride":4,"target":34962},{"buffer":0,"byteOffset":99104,"byteLength":148608,"target":34963},{"buffer":0,"byteOffset":247712,"byteLength":96,"byteStride":12,"target":34962},{"buffer":0,"byteOffset":247808,"byteLength":32,"byteStride":4,"target":34962},{"buffer":0,"byteOffset":247840,"byteLength":144,"target":34963},{"buffer":0,"byteOffset":247984,"byteLength":96,"byteStride":12,"target":34962},{"buffer":0,"byteOffset":248080,"byteLength":32,"byteStride":4,"target":34962},{"buffer":0,"byteOffset":248112,"byteLength":144,"target":34963},{"buffer":0,"byteOffset":248256,"byteLength":10740,"byteStride":12,"target":34962},{"buffer":0,"byteOffset":258996,"byteLength":3580,"byteStride":4,"target":34962},{"buffer":0,"byteOffset":262576,"byteLength":21432,"target":34963},{"buffer":0,"byteOffset":284008,"byteLength":11424,"byteStride":12,"target":34962},{"buffer":0,"byteOffset":295432,"byteLength":3808,"byteStride":4,"target":34962},{"buffer":0,"byteOffset":299240,"byteLength":22800,"target":34963}],"buffers":[{"byteLength":322040,"uri":"SEPAR3ph.bin"}]}