{"asset":{"generator":"3D Builder","version":"2.0"},"scene":0,"scenes":[{"nodes":[0]}],"nodes":[{"children":[1,2,3,4]},{"mesh":0,"matrix":[0.99999994039535522,0,0,0,0,-1.1920928244535389E-7,-0.99999982118606567,0,0,0.99999982118606567,-1.1920928244535389E-7,0,0,0.0029999995604157448,-3.5762787176096822E-10,1]},{"mesh":1,"matrix":[0.99999994039535522,0,0,0,0,-1.1920928244535389E-7,-0.99999982118606567,0,0,0.99999982118606567,-1.1920928244535389E-7,0,0,0.0029999995604157448,-3.5762787176096822E-10,1]},{"mesh":2,"matrix":[0.99999994039535522,0,0,0,0,-1.1920928244535389E-7,-0.99999982118606567,0,0,0.99999982118606567,-1.1920928244535389E-7,0,0,0.0029999995604157448,-3.5762787176096822E-10,1]},{"mesh":3,"matrix":[0.99999994039535522,0,0,0,0,-1.1920928244535389E-7,-0.99999982118606567,0,0,0.99999982118606567,-1.1920928244535389E-7,0,0,0.0029999995604157448,-3.5762787176096822E-10,1]}],"meshes":[{"primitives":[{"attributes":{"POSITION":0,"COLOR_0":1},"mode":4,"indices":2}]},{"primitives":[{"attributes":{"POSITION":3,"COLOR_0":4},"mode":4,"indices":5}]},{"primitives":[{"attributes":{"POSITION":6,"COLOR_0":7},"mode":4,"indices":8}]},{"primitives":[{"attributes":{"POSITION":9,"COLOR_0":10},"mode":4,"indices":11}]}],"accessors":[{"bufferView":0,"byteOffset":0,"count":10109,"componentType":5126,"type":"VEC3","min":[-0.014000000432133675,-0.016499999910593033,-0.0030000000260770321],"max":[0.01900000125169754,0.016499999910593033,0.032038081437349319]},{"bufferView":1,"byteOffset":0,"count":10109,"componentType":5121,"type":"VEC4","normalized":true},{"bufferView":2,"byteOffset":0,"count":60642,"componentType":5125,"type":"SCALAR"},{"bufferView":3,"byteOffset":0,"count":874,"componentType":5126,"type":"VEC3","min":[-0.011500000953674316,0.010889140889048576,0.0063137989491224289],"max":[-0.0060495170764625072,0.015981629490852356,0.014758196659386158]},{"bufferView":4,"byteOffset":0,"count":874,"componentType":5121,"type":"VEC4","normalized":true},{"bufferView":5,"byteOffset":0,"count":5232,"componentType":5125,"type":"SCALAR"},{"bufferView":6,"byteOffset":0,"count":731,"componentType":5126,"type":"VEC3","min":[-0.012500000186264515,0.0085493400692939758,0.0063137989491224289],"max":[-0.0078762313351035118,0.012981628999114037,0.014543816447257996]},{"bufferView":7,"byteOffset":0,"count":731,"componentType":5121,"type":"VEC4","normalized":true},{"bufferView":8,"byteOffset":0,"count":4374,"componentType":5125,"type":"SCALAR"},{"bufferView":9,"byteOffset":0,"count":92,"componentType":5126,"type":"VEC3","min":[0.018500000238418579,-0.0025000001769512892,0.0070000002160668373],"max":[0.019500000402331352,0.0025000001769512892,0.027000000700354576]},{"bufferView":10,"byteOffset":0,"count":92,"componentType":5121,"type":"VEC4","normalized":true},{"bufferView":11,"byteOffset":0,"count":600,"componentType":5125,"type":"SCALAR"}],"bufferViews":[{"buffer":0,"byteOffset":0,"byteLength":121308,"byteStride":12,"target":34962},{"buffer":0,"byteOffset":121308,"byteLength":40436,"byteStride":4,"target":34962},{"buffer":0,"byteOffset":161744,"byteLength":242568,"target":34963},{"buffer":0,"byteOffset":404312,"byteLength":10488,"byteStride":12,"target":34962},{"buffer":0,"byteOffset":414800,"byteLength":3496,"byteStride":4,"target":34962},{"buffer":0,"byteOffset":418296,"byteLength":20928,"target":34963},{"buffer":0,"byteOffset":439224,"byteLength":8772,"byteStride":12,"target":34962},{"buffer":0,"byteOffset":447996,"byteLength":2924,"byteStride":4,"target":34962},{"buffer":0,"byteOffset":450920,"byteLength":17496,"target":34963},{"buffer":0,"byteOffset":468416,"byteLength":1104,"byteStride":12,"target":34962},{"buffer":0,"byteOffset":469520,"byteLength":368,"byteStride":4,"target":34962},{"buffer":0,"byteOffset":469888,"byteLength":2400,"target":34963}],"buffers":[{"byteLength":472288,"uri":"CPS.bin"}]}