{"asset":{"generator":"3D Builder","version":"2.0"},"scene":0,"scenes":[{"nodes":[0]}],"nodes":[{"children":[1,2,3,4,5,6,7,8,9,10,11,12,13,14,15]},{"mesh":0,"matrix":[0.99999994039535522,0,0,0,0,-1.1920928244535389E-7,-0.99999982118606567,0,0,0.99999982118606567,-1.1920928244535389E-7,0,0,0.0029999995604157448,-3.5762787176096822E-10,1]},{"mesh":1,"matrix":[0.99999994039535522,0,0,0,0,-1.1920928244535389E-7,-0.99999982118606567,0,0,0.99999982118606567,-1.1920928244535389E-7,0,0,0.0029999995604157448,-3.5762787176096822E-10,1]},{"mesh":2,"matrix":[0.99999994039535522,0,0,0,0,-1.1920928244535389E-7,-0.99999982118606567,0,0,0.99999982118606567,-1.1920928244535389E-7,0,0,0.0029999995604157448,-3.5762787176096822E-10,1]},{"mesh":3,"matrix":[0.99999994039535522,0,0,0,0,-1.1920928244535389E-7,-0.99999982118606567,0,0,0.99999982118606567,-1.1920928244535389E-7,0,0,0.0029999995604157448,-3.5762787176096822E-10,1]},{"mesh":4,"matrix":[0.99999994039535522,0,0,0,0,-1.1920928244535389E-7,-0.99999982118606567,0,0,0.99999982118606567,-1.1920928244535389E-7,0,0,0.0029999995604157448,-3.5762787176096822E-10,1]},{"mesh":5,"matrix":[0.99999994039535522,0,0,0,0,-1.1920928244535389E-7,-0.99999982118606567,0,0,0.99999982118606567,-1.1920928244535389E-7,0,0,0.0029999995604157448,-3.5762787176096822E-10,1]},{"mesh":6,"matrix":[0.99999994039535522,0,0,0,0,-1.1920928244535389E-7,-0.99999982118606567,0,0,0.99999982118606567,-1.1920928244535389E-7,0,0,0.0029999995604157448,-3.5762787176096822E-10,1]},{"mesh":7,"matrix":[0.99999994039535522,0,0,0,0,-1.1920928244535389E-7,-0.99999982118606567,0,0,0.99999982118606567,-1.1920928244535389E-7,0,0,0.0029999995604157448,-3.5762787176096822E-10,1]},{"mesh":8,"matrix":[0.99999994039535522,0,0,0,0,-1.1920928244535389E-7,-0.99999982118606567,0,0,0.99999982118606567,-1.1920928244535389E-7,0,0,0.0029999995604157448,-3.5762787176096822E-10,1]},{"mesh":9,"matrix":[0.99999994039535522,0,0,0,0,-1.1920928244535389E-7,-0.99999982118606567,0,0,0.99999982118606567,-1.1920928244535389E-7,0,0,0.0029999995604157448,-3.5762787176096822E-10,1]},{"mesh":10,"matrix":[0.99999994039535522,0,0,0,0,-1.1920928244535389E-7,-0.99999982118606567,0,0,0.99999982118606567,-1.1920928244535389E-7,0,0,0.0029999995604157448,-3.5762787176096822E-10,1]},{"mesh":11,"matrix":[0.99999994039535522,0,0,0,0,-1.1920928244535389E-7,-0.99999982118606567,0,0,0.99999982118606567,-1.1920928244535389E-7,0,0,0.0029999995604157448,-3.5762787176096822E-10,1]},{"mesh":12,"matrix":[0.99999994039535522,0,0,0,0,-1.1920928244535389E-7,-0.99999982118606567,0,0,0.99999982118606567,-1.1920928244535389E-7,0,0,0.0029999995604157448,-3.5762787176096822E-10,1]},{"mesh":13,"matrix":[0.99999994039535522,0,0,0,0,-1.1920928244535389E-7,-0.99999982118606567,0,0,0.99999982118606567,-1.1920928244535389E-7,0,0,0.0029999995604157448,-3.5762787176096822E-10,1]},{"mesh":14,"matrix":[0.99999994039535522,0,0,0,0,-1.1920928244535389E-7,-0.99999982118606567,0,0,0.99999982118606567,-1.1920928244535389E-7,0,0,0.0029999995604157448,-3.5762787176096822E-10,1]}],"meshes":[{"primitives":[{"attributes":{"POSITION":0,"COLOR_0":1},"mode":4,"indices":2}]},{"primitives":[{"attributes":{"POSITION":3,"COLOR_0":4},"mode":4,"indices":5}]},{"primitives":[{"attributes":{"POSITION":6,"COLOR_0":7},"mode":4,"indices":8}]},{"primitives":[{"attributes":{"POSITION":9,"COLOR_0":10},"mode":4,"indices":11}]},{"primitives":[{"attributes":{"POSITION":12,"COLOR_0":13},"mode":4,"indices":14}]},{"primitives":[{"attributes":{"POSITION":15,"COLOR_0":16},"mode":4,"indices":17}]},{"primitives":[{"attributes":{"POSITION":18,"COLOR_0":19},"mode":4,"indices":20}]},{"primitives":[{"attributes":{"POSITION":21,"COLOR_0":22},"mode":4,"indices":23}]},{"primitives":[{"attributes":{"POSITION":24,"COLOR_0":25},"mode":4,"indices":26}]},{"primitives":[{"attributes":{"POSITION":27,"COLOR_0":28},"mode":4,"indices":29}]},{"primitives":[{"attributes":{"POSITION":30,"COLOR_0":31},"mode":4,"indices":32}]},{"primitives":[{"attributes":{"POSITION":33,"COLOR_0":34},"mode":4,"indices":35}]},{"primitives":[{"attributes":{"POSITION":36,"COLOR_0":37},"mode":4,"indices":38}]},{"primitives":[{"attributes":{"POSITION":39,"COLOR_0":40},"mode":4,"indices":41}]},{"primitives":[{"attributes":{"POSITION":42,"COLOR_0":43},"mode":4,"indices":44}]}],"accessors":[{"bufferView":0,"byteOffset":0,"count":1813,"componentType":5126,"type":"VEC3","min":[0.010000000707805157,0.018000001087784767,-0.0030000000260770321],"max":[0.059000004082918167,0.040000002831220627,0.036000002175569534]},{"bufferView":1,"byteOffset":0,"count":1813,"componentType":5121,"type":"VEC4","normalized":true},{"bufferView":2,"byteOffset":0,"count":11022,"componentType":5125,"type":"SCALAR"},{"bufferView":3,"byteOffset":0,"count":1298,"componentType":5126,"type":"VEC3","min":[0.0145072927698493,0.01900000125169754,0.012000000104308128],"max":[0.0534927137196064,0.021000001579523087,0.014492710120975971]},{"bufferView":4,"byteOffset":0,"count":1298,"componentType":5121,"type":"VEC4","normalized":true},{"bufferView":5,"byteOffset":0,"count":7776,"componentType":5125,"type":"SCALAR"},{"bufferView":6,"byteOffset":0,"count":1298,"componentType":5126,"type":"VEC3","min":[0.0145072927698493,0.0215000007301569,0.012000000104308128],"max":[0.0534927137196064,0.023500001057982445,0.014492710120975971]},{"bufferView":7,"byteOffset":0,"count":1298,"componentType":5121,"type":"VEC4","normalized":true},{"bufferView":8,"byteOffset":0,"count":7776,"componentType":5125,"type":"SCALAR"},{"bufferView":9,"byteOffset":0,"count":904,"componentType":5126,"type":"VEC3","min":[0.039005566388368607,0.026557574048638344,0.011922827921807766],"max":[0.041000001132488251,0.033995043486356735,0.020519029349088669]},{"bufferView":10,"byteOffset":0,"count":904,"componentType":5121,"type":"VEC4","normalized":true},{"bufferView":11,"byteOffset":0,"count":5412,"componentType":5125,"type":"SCALAR"},{"bufferView":12,"byteOffset":0,"count":904,"componentType":5126,"type":"VEC3","min":[0.031505566090345383,0.026557574048638344,0.011922827921807766],"max":[0.033500000834465027,0.033995043486356735,0.020519029349088669]},{"bufferView":13,"byteOffset":0,"count":904,"componentType":5121,"type":"VEC4","normalized":true},{"bufferView":14,"byteOffset":0,"count":5412,"componentType":5125,"type":"SCALAR"},{"bufferView":15,"byteOffset":0,"count":904,"componentType":5126,"type":"VEC3","min":[0.024005567654967308,0.026557574048638344,0.011922827921807766],"max":[0.026000000536441803,0.033995043486356735,0.020519029349088669]},{"bufferView":16,"byteOffset":0,"count":904,"componentType":5121,"type":"VEC4","normalized":true},{"bufferView":17,"byteOffset":0,"count":5412,"componentType":5125,"type":"SCALAR"},{"bufferView":18,"byteOffset":0,"count":756,"componentType":5126,"type":"VEC3","min":[0.041124694049358368,0.025384766981005669,0.011500000953674316],"max":[0.047847490757703781,0.027809111401438713,0.017963582649827003]},{"bufferView":19,"byteOffset":0,"count":756,"componentType":5121,"type":"VEC4","normalized":true},{"bufferView":20,"byteOffset":0,"count":4524,"componentType":5125,"type":"SCALAR"},{"bufferView":21,"byteOffset":0,"count":1298,"componentType":5126,"type":"VEC3","min":[0.0145072927698493,0.036500003188848495,0.012000000104308128],"max":[0.0534927137196064,0.038500003516674042,0.014492710120975971]},{"bufferView":22,"byteOffset":0,"count":1298,"componentType":5121,"type":"VEC4","normalized":true},{"bufferView":23,"byteOffset":0,"count":7776,"componentType":5125,"type":"SCALAR"},{"bufferView":24,"byteOffset":0,"count":1593,"componentType":5126,"type":"VEC3","min":[0.035500001162290573,0.027857596054673195,0.011772185564041138],"max":[0.037494435906410217,0.038496378809213638,0.017995921894907951]},{"bufferView":25,"byteOffset":0,"count":1593,"componentType":5121,"type":"VEC4","normalized":true},{"bufferView":26,"byteOffset":0,"count":9546,"componentType":5125,"type":"SCALAR"},{"bufferView":27,"byteOffset":0,"count":1593,"componentType":5126,"type":"VEC3","min":[0.027500001713633537,0.027857596054673195,0.011772185564041138],"max":[0.029494436457753181,0.038496378809213638,0.017995921894907951]},{"bufferView":28,"byteOffset":0,"count":1593,"componentType":5121,"type":"VEC4","normalized":true},{"bufferView":29,"byteOffset":0,"count":9546,"componentType":5125,"type":"SCALAR"},{"bufferView":30,"byteOffset":0,"count":1593,"componentType":5126,"type":"VEC3","min":[0.043500002473592758,0.027857596054673195,0.011772185564041138],"max":[0.0454944372177124,0.038496378809213638,0.017995921894907951]},{"bufferView":31,"byteOffset":0,"count":1593,"componentType":5121,"type":"VEC4","normalized":true},{"bufferView":32,"byteOffset":0,"count":9546,"componentType":5125,"type":"SCALAR"},{"bufferView":33,"byteOffset":0,"count":1593,"componentType":5126,"type":"VEC3","min":[0.046500001102685928,0.027857596054673195,0.011772185564041138],"max":[0.048494435846805573,0.038496378809213638,0.017995921894907951]},{"bufferView":34,"byteOffset":0,"count":1593,"componentType":5121,"type":"VEC4","normalized":true},{"bufferView":35,"byteOffset":0,"count":9546,"componentType":5125,"type":"SCALAR"},{"bufferView":36,"byteOffset":0,"count":1451,"componentType":5126,"type":"VEC3","min":[0.046853508800268173,0.023500001057982445,0.010500000789761543],"max":[0.05749107152223587,0.025500001385807991,0.015995921567082405]},{"bufferView":37,"byteOffset":0,"count":1451,"componentType":5121,"type":"VEC4","normalized":true},{"bufferView":38,"byteOffset":0,"count":8694,"componentType":5125,"type":"SCALAR"},{"bufferView":39,"byteOffset":0,"count":1451,"componentType":5126,"type":"VEC3","min":[0.046853508800268173,0.033500000834465027,0.010500000789761543],"max":[0.05749107152223587,0.035500001162290573,0.015995921567082405]},{"bufferView":40,"byteOffset":0,"count":1451,"componentType":5121,"type":"VEC4","normalized":true},{"bufferView":41,"byteOffset":0,"count":8694,"componentType":5125,"type":"SCALAR"},{"bufferView":42,"byteOffset":0,"count":1451,"componentType":5126,"type":"VEC3","min":[0.046853508800268173,0.030500002205371857,0.010500000789761543],"max":[0.05749107152223587,0.0325000025331974,0.015995921567082405]},{"bufferView":43,"byteOffset":0,"count":1451,"componentType":5121,"type":"VEC4","normalized":true},{"bufferView":44,"byteOffset":0,"count":8694,"componentType":5125,"type":"SCALAR"}],"bufferViews":[{"buffer":0,"byteOffset":0,"byteLength":21756,"byteStride":12,"target":34962},{"buffer":0,"byteOffset":21756,"byteLength":7252,"byteStride":4,"target":34962},{"buffer":0,"byteOffset":29008,"byteLength":44088,"target":34963},{"buffer":0,"byteOffset":73096,"byteLength":15576,"byteStride":12,"target":34962},{"buffer":0,"byteOffset":88672,"byteLength":5192,"byteStride":4,"target":34962},{"buffer":0,"byteOffset":93864,"byteLength":31104,"target":34963},{"buffer":0,"byteOffset":124968,"byteLength":15576,"byteStride":12,"target":34962},{"buffer":0,"byteOffset":140544,"byteLength":5192,"byteStride":4,"target":34962},{"buffer":0,"byteOffset":145736,"byteLength":31104,"target":34963},{"buffer":0,"byteOffset":176840,"byteLength":10848,"byteStride":12,"target":34962},{"buffer":0,"byteOffset":187688,"byteLength":3616,"byteStride":4,"target":34962},{"buffer":0,"byteOffset":191304,"byteLength":21648,"target":34963},{"buffer":0,"byteOffset":212952,"byteLength":10848,"byteStride":12,"target":34962},{"buffer":0,"byteOffset":223800,"byteLength":3616,"byteStride":4,"target":34962},{"buffer":0,"byteOffset":227416,"byteLength":21648,"target":34963},{"buffer":0,"byteOffset":249064,"byteLength":10848,"byteStride":12,"target":34962},{"buffer":0,"byteOffset":259912,"byteLength":3616,"byteStride":4,"target":34962},{"buffer":0,"byteOffset":263528,"byteLength":21648,"target":34963},{"buffer":0,"byteOffset":285176,"byteLength":9072,"byteStride":12,"target":34962},{"buffer":0,"byteOffset":294248,"byteLength":3024,"byteStride":4,"target":34962},{"buffer":0,"byteOffset":297272,"byteLength":18096,"target":34963},{"buffer":0,"byteOffset":315368,"byteLength":15576,"byteStride":12,"target":34962},{"buffer":0,"byteOffset":330944,"byteLength":5192,"byteStride":4,"target":34962},{"buffer":0,"byteOffset":336136,"byteLength":31104,"target":34963},{"buffer":0,"byteOffset":367240,"byteLength":19116,"byteStride":12,"target":34962},{"buffer":0,"byteOffset":386356,"byteLength":6372,"byteStride":4,"target":34962},{"buffer":0,"byteOffset":392728,"byteLength":38184,"target":34963},{"buffer":0,"byteOffset":430912,"byteLength":19116,"byteStride":12,"target":34962},{"buffer":0,"byteOffset":450028,"byteLength":6372,"byteStride":4,"target":34962},{"buffer":0,"byteOffset":456400,"byteLength":38184,"target":34963},{"buffer":0,"byteOffset":494584,"byteLength":19116,"byteStride":12,"target":34962},{"buffer":0,"byteOffset":513700,"byteLength":6372,"byteStride":4,"target":34962},{"buffer":0,"byteOffset":520072,"byteLength":38184,"target":34963},{"buffer":0,"byteOffset":558256,"byteLength":19116,"byteStride":12,"target":34962},{"buffer":0,"byteOffset":577372,"byteLength":6372,"byteStride":4,"target":34962},{"buffer":0,"byteOffset":583744,"byteLength":38184,"target":34963},{"buffer":0,"byteOffset":621928,"byteLength":17412,"byteStride":12,"target":34962},{"buffer":0,"byteOffset":639340,"byteLength":5804,"byteStride":4,"target":34962},{"buffer":0,"byteOffset":645144,"byteLength":34776,"target":34963},{"buffer":0,"byteOffset":679920,"byteLength":17412,"byteStride":12,"target":34962},{"buffer":0,"byteOffset":697332,"byteLength":5804,"byteStride":4,"target":34962},{"buffer":0,"byteOffset":703136,"byteLength":34776,"target":34963},{"buffer":0,"byteOffset":737912,"byteLength":17412,"byteStride":12,"target":34962},{"buffer":0,"byteOffset":755324,"byteLength":5804,"byteStride":4,"target":34962},{"buffer":0,"byteOffset":761128,"byteLength":34776,"target":34963}],"buffers":[{"byteLength":795904,"uri":"FPSO.bin"}]}