{"asset":{"generator":"3D Builder","version":"2.0"},"scene":0,"scenes":[{"nodes":[0]}],"nodes":[{"mesh":0,"matrix":[0.99999994039535522,0,0,0,0,-1.1920928244535389E-7,-0.99999982118606567,0,0,0.99999982118606567,-1.1920928244535389E-7,0,0,0.0029999995604157448,-3.5762787176096822E-10,1]}],"meshes":[{"primitives":[{"attributes":{"POSITION":0,"COLOR_0":1},"mode":4,"indices":2}]}],"accessors":[{"bufferView":0,"byteOffset":0,"count":844,"componentType":5126,"type":"VEC3","min":[0.015000000596046448,0.004999999888241291,-0.0030000000260770321],"max":[0.035000000149011612,0.045000001788139343,0.021000001579523087]},{"bufferView":1,"byteOffset":0,"count":844,"componentType":5121,"type":"VEC4","normalized":true},{"bufferView":2,"byteOffset":0,"count":5052,"componentType":5125,"type":"SCALAR"}],"bufferViews":[{"buffer":0,"byteOffset":0,"byteLength":10128,"byteStride":12,"target":34962},{"buffer":0,"byteOffset":10128,"byteLength":3376,"byteStride":4,"target":34962},{"buffer":0,"byteOffset":13504,"byteLength":20208,"target":34963}],"buffers":[{"byteLength":33712,"uri":"House.bin"}]}