{"asset":{"generator":"3D Builder","version":"2.0"},"scene":0,"scenes":[{"nodes":[0]}],"nodes":[{"children":[1,2,3,4,5,6,7,8,9,10,11,12,13]},{"mesh":0,"matrix":[0.99999994039535522,0,0,0,0,-1.1920928244535389E-7,-0.99999982118606567,0,0,0.99999982118606567,-1.1920928244535389E-7,0,0,0.0029999995604157448,-3.5762787176096822E-10,1]},{"mesh":1,"matrix":[0.99999994039535522,0,0,0,0,-1.1920928244535389E-7,-0.99999982118606567,0,0,0.99999982118606567,-1.1920928244535389E-7,0,0,0.0029999995604157448,-3.5762787176096822E-10,1]},{"mesh":2,"matrix":[0.99999994039535522,0,0,0,0,-1.1920928244535389E-7,-0.99999982118606567,0,0,0.99999982118606567,-1.1920928244535389E-7,0,0,0.0029999995604157448,-3.5762787176096822E-10,1]},{"mesh":3,"matrix":[0.99999994039535522,0,0,0,0,-1.1920928244535389E-7,-0.99999982118606567,0,0,0.99999982118606567,-1.1920928244535389E-7,0,0,0.0029999995604157448,-3.5762787176096822E-10,1]},{"mesh":4,"matrix":[0.99999994039535522,0,0,0,0,-1.1920928244535389E-7,-0.99999982118606567,0,0,0.99999982118606567,-1.1920928244535389E-7,0,0,0.0029999995604157448,-3.5762787176096822E-10,1]},{"mesh":5,"matrix":[0.99999994039535522,0,0,0,0,-1.1920928244535389E-7,-0.99999982118606567,0,0,0.99999982118606567,-1.1920928244535389E-7,0,0,0.0029999995604157448,-3.5762787176096822E-10,1]},{"mesh":6,"matrix":[0.99999994039535522,0,0,0,0,-1.1920928244535389E-7,-0.99999982118606567,0,0,0.99999982118606567,-1.1920928244535389E-7,0,0,0.0029999995604157448,-3.5762787176096822E-10,1]},{"mesh":7,"matrix":[0.99999994039535522,0,0,0,0,-1.1920928244535389E-7,-0.99999982118606567,0,0,0.99999982118606567,-1.1920928244535389E-7,0,0,0.0029999995604157448,-3.5762787176096822E-10,1]},{"mesh":8,"matrix":[0.99999994039535522,0,0,0,0,-1.1920928244535389E-7,-0.99999982118606567,0,0,0.99999982118606567,-1.1920928244535389E-7,0,0,0.0029999995604157448,-3.5762787176096822E-10,1]},{"mesh":9,"matrix":[0.99999994039535522,0,0,0,0,-1.1920928244535389E-7,-0.99999982118606567,0,0,0.99999982118606567,-1.1920928244535389E-7,0,0,0.0029999995604157448,-3.5762787176096822E-10,1]},{"mesh":10,"matrix":[0.99999994039535522,0,0,0,0,-1.1920928244535389E-7,-0.99999982118606567,0,0,0.99999982118606567,-1.1920928244535389E-7,0,0,0.0029999995604157448,-3.5762787176096822E-10,1]},{"mesh":11,"matrix":[0.99999994039535522,0,0,0,0,-1.1920928244535389E-7,-0.99999982118606567,0,0,0.99999982118606567,-1.1920928244535389E-7,0,0,0.0029999995604157448,-3.5762787176096822E-10,1]},{"mesh":12,"matrix":[0.99999994039535522,0,0,0,0,-1.1920928244535389E-7,-0.99999982118606567,0,0,0.99999982118606567,-1.1920928244535389E-7,0,0,0.0029999995604157448,-3.5762787176096822E-10,1]}],"meshes":[{"primitives":[{"attributes":{"POSITION":0,"COLOR_0":1},"mode":4,"indices":2}]},{"primitives":[{"attributes":{"POSITION":3,"COLOR_0":4},"mode":4,"indices":5}]},{"primitives":[{"attributes":{"POSITION":6,"COLOR_0":7},"mode":4,"indices":8}]},{"primitives":[{"attributes":{"POSITION":9,"COLOR_0":10},"mode":4,"indices":11}]},{"primitives":[{"attributes":{"POSITION":12,"COLOR_0":13},"mode":4,"indices":14}]},{"primitives":[{"attributes":{"POSITION":15,"COLOR_0":16},"mode":4,"indices":17}]},{"primitives":[{"attributes":{"POSITION":18,"COLOR_0":19},"mode":4,"indices":20}]},{"primitives":[{"attributes":{"POSITION":21,"COLOR_0":22},"mode":4,"indices":23}]},{"primitives":[{"attributes":{"POSITION":24,"COLOR_0":25},"mode":4,"indices":26}]},{"primitives":[{"attributes":{"POSITION":27,"COLOR_0":28},"mode":4,"indices":29}]},{"primitives":[{"attributes":{"POSITION":30,"COLOR_0":31},"mode":4,"indices":32}]},{"primitives":[{"attributes":{"POSITION":33,"COLOR_0":34},"mode":4,"indices":35}]},{"primitives":[{"attributes":{"POSITION":36,"COLOR_0":37},"mode":4,"indices":38}]}],"accessors":[{"bufferView":0,"byteOffset":0,"count":454,"componentType":5126,"type":"VEC3","min":[0.020500000566244125,0.005000007338821888,-0.0030000000260770321],"max":[0.04050000011920929,0.04500000923871994,0.0070000002160668373]},{"bufferView":1,"byteOffset":0,"count":454,"componentType":5121,"type":"VEC4","normalized":true},{"bufferView":2,"byteOffset":0,"count":2712,"componentType":5125,"type":"SCALAR"},{"bufferView":3,"byteOffset":0,"count":752,"componentType":5126,"type":"VEC3","min":[0.020500000566244125,0.020006630569696426,0.0063750329427421093],"max":[0.030500002205371857,0.030000001192092896,0.016371717676520348]},{"bufferView":4,"byteOffset":0,"count":752,"componentType":5121,"type":"VEC4","normalized":true},{"bufferView":5,"byteOffset":0,"count":4500,"componentType":5125,"type":"SCALAR"},{"bufferView":6,"byteOffset":0,"count":752,"componentType":5126,"type":"VEC3","min":[0.020500000566244125,0.0070066303014755249,0.0063750329427421093],"max":[0.030500002205371857,0.017000000923871994,0.016371717676520348]},{"bufferView":7,"byteOffset":0,"count":752,"componentType":5121,"type":"VEC4","normalized":true},{"bufferView":8,"byteOffset":0,"count":4500,"componentType":5125,"type":"SCALAR"},{"bufferView":9,"byteOffset":0,"count":752,"componentType":5126,"type":"VEC3","min":[0.020500000566244125,0.033006630837917328,0.0063750329427421093],"max":[0.030500002205371857,0.0430000014603138,0.016371717676520348]},{"bufferView":10,"byteOffset":0,"count":752,"componentType":5121,"type":"VEC4","normalized":true},{"bufferView":11,"byteOffset":0,"count":4500,"componentType":5125,"type":"SCALAR"},{"bufferView":12,"byteOffset":0,"count":420,"componentType":5126,"type":"VEC3","min":[0.030500002205371857,0.00850000698119402,0.0070000002160668373],"max":[0.035000000149011612,0.012498386204242706,0.013000000268220901]},{"bufferView":13,"byteOffset":0,"count":420,"componentType":5121,"type":"VEC4","normalized":true},{"bufferView":14,"byteOffset":0,"count":2508,"componentType":5125,"type":"SCALAR"},{"bufferView":15,"byteOffset":0,"count":420,"componentType":5126,"type":"VEC3","min":[0.030500002205371857,0.021500008180737495,0.0070000002160668373],"max":[0.035000000149011612,0.025498386472463608,0.013000000268220901]},{"bufferView":16,"byteOffset":0,"count":420,"componentType":5121,"type":"VEC4","normalized":true},{"bufferView":17,"byteOffset":0,"count":2508,"componentType":5125,"type":"SCALAR"},{"bufferView":18,"byteOffset":0,"count":420,"componentType":5126,"type":"VEC3","min":[0.030500002205371857,0.034500010311603546,0.0070000002160668373],"max":[0.035000000149011612,0.038498386740684509,0.013000000268220901]},{"bufferView":19,"byteOffset":0,"count":420,"componentType":5121,"type":"VEC4","normalized":true},{"bufferView":20,"byteOffset":0,"count":2508,"componentType":5125,"type":"SCALAR"},{"bufferView":21,"byteOffset":0,"count":720,"componentType":5126,"type":"VEC3","min":[0.029500002041459084,0.01250170636922121,0.0055000004358589649],"max":[0.040000002831220627,0.015498308464884758,0.0090000005438923836]},{"bufferView":22,"byteOffset":0,"count":720,"componentType":5121,"type":"VEC4","normalized":true},{"bufferView":23,"byteOffset":0,"count":4308,"componentType":5125,"type":"SCALAR"},{"bufferView":24,"byteOffset":0,"count":720,"componentType":5126,"type":"VEC3","min":[0.029500002041459084,0.025501707568764687,0.0055000004358589649],"max":[0.040000002831220627,0.028498308733105659,0.0090000005438923836]},{"bufferView":25,"byteOffset":0,"count":720,"componentType":5121,"type":"VEC4","normalized":true},{"bufferView":26,"byteOffset":0,"count":4308,"componentType":5125,"type":"SCALAR"},{"bufferView":27,"byteOffset":0,"count":720,"componentType":5126,"type":"VEC3","min":[0.029500002041459084,0.038501705974340439,0.0055000004358589649],"max":[0.040000002831220627,0.041498307138681412,0.0090000005438923836]},{"bufferView":28,"byteOffset":0,"count":720,"componentType":5121,"type":"VEC4","normalized":true},{"bufferView":29,"byteOffset":0,"count":4308,"componentType":5125,"type":"SCALAR"},{"bufferView":30,"byteOffset":0,"count":913,"componentType":5126,"type":"VEC3","min":[0.030103558674454689,0.01050000824034214,0.006996719166636467],"max":[0.038047522306442261,0.012494443915784359,0.015497921966016293]},{"bufferView":31,"byteOffset":0,"count":913,"componentType":5121,"type":"VEC4","normalized":true},{"bufferView":32,"byteOffset":0,"count":5466,"componentType":5125,"type":"SCALAR"},{"bufferView":33,"byteOffset":0,"count":913,"componentType":5126,"type":"VEC3","min":[0.030103558674454689,0.023500008508563042,0.006996719166636467],"max":[0.038047522306442261,0.025494443252682686,0.015497921966016293]},{"bufferView":34,"byteOffset":0,"count":913,"componentType":5121,"type":"VEC4","normalized":true},{"bufferView":35,"byteOffset":0,"count":5466,"componentType":5125,"type":"SCALAR"},{"bufferView":36,"byteOffset":0,"count":913,"componentType":5126,"type":"VEC3","min":[0.030103558674454689,0.036500010639429092,0.006996719166636467],"max":[0.038047522306442261,0.038494445383548737,0.015497921966016293]},{"bufferView":37,"byteOffset":0,"count":913,"componentType":5121,"type":"VEC4","normalized":true},{"bufferView":38,"byteOffset":0,"count":5466,"componentType":5125,"type":"SCALAR"}],"bufferViews":[{"buffer":0,"byteOffset":0,"byteLength":5448,"byteStride":12,"target":34962},{"buffer":0,"byteOffset":5448,"byteLength":1816,"byteStride":4,"target":34962},{"buffer":0,"byteOffset":7264,"byteLength":10848,"target":34963},{"buffer":0,"byteOffset":18112,"byteLength":9024,"byteStride":12,"target":34962},{"buffer":0,"byteOffset":27136,"byteLength":3008,"byteStride":4,"target":34962},{"buffer":0,"byteOffset":30144,"byteLength":18000,"target":34963},{"buffer":0,"byteOffset":48144,"byteLength":9024,"byteStride":12,"target":34962},{"buffer":0,"byteOffset":57168,"byteLength":3008,"byteStride":4,"target":34962},{"buffer":0,"byteOffset":60176,"byteLength":18000,"target":34963},{"buffer":0,"byteOffset":78176,"byteLength":9024,"byteStride":12,"target":34962},{"buffer":0,"byteOffset":87200,"byteLength":3008,"byteStride":4,"target":34962},{"buffer":0,"byteOffset":90208,"byteLength":18000,"target":34963},{"buffer":0,"byteOffset":108208,"byteLength":5040,"byteStride":12,"target":34962},{"buffer":0,"byteOffset":113248,"byteLength":1680,"byteStride":4,"target":34962},{"buffer":0,"byteOffset":114928,"byteLength":10032,"target":34963},{"buffer":0,"byteOffset":124960,"byteLength":5040,"byteStride":12,"target":34962},{"buffer":0,"byteOffset":130000,"byteLength":1680,"byteStride":4,"target":34962},{"buffer":0,"byteOffset":131680,"byteLength":10032,"target":34963},{"buffer":0,"byteOffset":141712,"byteLength":5040,"byteStride":12,"target":34962},{"buffer":0,"byteOffset":146752,"byteLength":1680,"byteStride":4,"target":34962},{"buffer":0,"byteOffset":148432,"byteLength":10032,"target":34963},{"buffer":0,"byteOffset":158464,"byteLength":8640,"byteStride":12,"target":34962},{"buffer":0,"byteOffset":167104,"byteLength":2880,"byteStride":4,"target":34962},{"buffer":0,"byteOffset":169984,"byteLength":17232,"target":34963},{"buffer":0,"byteOffset":187216,"byteLength":8640,"byteStride":12,"target":34962},{"buffer":0,"byteOffset":195856,"byteLength":2880,"byteStride":4,"target":34962},{"buffer":0,"byteOffset":198736,"byteLength":17232,"target":34963},{"buffer":0,"byteOffset":215968,"byteLength":8640,"byteStride":12,"target":34962},{"buffer":0,"byteOffset":224608,"byteLength":2880,"byteStride":4,"target":34962},{"buffer":0,"byteOffset":227488,"byteLength":17232,"target":34963},{"buffer":0,"byteOffset":244720,"byteLength":10956,"byteStride":12,"target":34962},{"buffer":0,"byteOffset":255676,"byteLength":3652,"byteStride":4,"target":34962},{"buffer":0,"byteOffset":259328,"byteLength":21864,"target":34963},{"buffer":0,"byteOffset":281192,"byteLength":10956,"byteStride":12,"target":34962},{"buffer":0,"byteOffset":292148,"byteLength":3652,"byteStride":4,"target":34962},{"buffer":0,"byteOffset":295800,"byteLength":21864,"target":34963},{"buffer":0,"byteOffset":317664,"byteLength":10956,"byteStride":12,"target":34962},{"buffer":0,"byteOffset":328620,"byteLength":3652,"byteStride":4,"target":34962},{"buffer":0,"byteOffset":332272,"byteLength":21864,"target":34963}],"buffers":[{"byteLength":354136,"uri":"NS.bin"}]}