{"asset":{"generator":"3D Builder","version":"2.0"},"scene":0,"scenes":[{"nodes":[0]}],"nodes":[{"mesh":0,"matrix":[0.99999994039535522,0,0,0,0,-1.1920928244535389E-7,-0.99999982118606567,0,0,0.99999982118606567,-1.1920928244535389E-7,0,0,0.0032999995164573193,-3.9339065338594992E-10,1]}],"meshes":[{"primitives":[{"attributes":{"POSITION":0,"COLOR_0":1},"mode":4,"indices":2}]}],"accessors":[{"bufferView":0,"byteOffset":0,"count":9890,"componentType":5126,"type":"VEC3","min":[-0.004999999888241291,0.0025000004097819328,-0.0033000002149492502],"max":[0.02500000037252903,0.072545558214187622,0.029000001028180122]},{"bufferView":1,"byteOffset":0,"count":9890,"componentType":5121,"type":"VEC4","normalized":true},{"bufferView":2,"byteOffset":0,"count":59484,"componentType":5125,"type":"SCALAR"}],"bufferViews":[{"buffer":0,"byteOffset":0,"byteLength":118680,"byteStride":12,"target":34962},{"buffer":0,"byteOffset":118680,"byteLength":39560,"byteStride":4,"target":34962},{"buffer":0,"byteOffset":158240,"byteLength":237936,"target":34963}],"buffers":[{"byteLength":396176,"uri":"Tanker.bin"}]}