{"asset":{"generator":"3D Builder","version":"2.0"},"scene":0,"scenes":[{"nodes":[0]}],"nodes":[{"children":[1,2,3,4,5,6,7]},{"mesh":0,"matrix":[0.99999994039535522,0,0,0,0,-1.1920928244535389E-7,-0.99999982118606567,0,0,0.99999982118606567,-1.1920928244535389E-7,0,0,0.0029999995604157448,-3.5762787176096822E-10,1]},{"mesh":1,"matrix":[0.99999994039535522,0,0,0,0,-1.1920928244535389E-7,-0.99999982118606567,0,0,0.99999982118606567,-1.1920928244535389E-7,0,0,0.0029999995604157448,-3.5762787176096822E-10,1]},{"mesh":2,"matrix":[0.99999994039535522,0,0,0,0,-1.1920928244535389E-7,-0.99999982118606567,0,0,0.99999982118606567,-1.1920928244535389E-7,0,0,0.0029999995604157448,-3.5762787176096822E-10,1]},{"mesh":3,"matrix":[0.99999994039535522,0,0,0,0,-1.1920928244535389E-7,-0.99999982118606567,0,0,0.99999982118606567,-1.1920928244535389E-7,0,0,0.0029999995604157448,-3.5762787176096822E-10,1]},{"mesh":4,"matrix":[0.99999994039535522,0,0,0,0,-1.1920928244535389E-7,-0.99999982118606567,0,0,0.99999982118606567,-1.1920928244535389E-7,0,0,0.0029999995604157448,-3.5762787176096822E-10,1]},{"mesh":5,"matrix":[0.99999994039535522,0,0,0,0,-1.1920928244535389E-7,-0.99999982118606567,0,0,0.99999982118606567,-1.1920928244535389E-7,0,0,0.0029999995604157448,-3.5762787176096822E-10,1]},{"mesh":6,"matrix":[0.99999994039535522,0,0,0,0,-1.1920928244535389E-7,-0.99999982118606567,0,0,0.99999982118606567,-1.1920928244535389E-7,0,0,0.0029999995604157448,-3.5762787176096822E-10,1]}],"meshes":[{"primitives":[{"attributes":{"POSITION":0,"COLOR_0":1},"mode":4,"indices":2}]},{"primitives":[{"attributes":{"POSITION":3,"COLOR_0":4},"mode":4,"indices":5}]},{"primitives":[{"attributes":{"POSITION":6,"COLOR_0":7},"mode":4,"indices":8}]},{"primitives":[{"attributes":{"POSITION":9,"COLOR_0":10},"mode":4,"indices":11}]},{"primitives":[{"attributes":{"POSITION":12,"COLOR_0":13},"mode":4,"indices":14}]},{"primitives":[{"attributes":{"POSITION":15,"COLOR_0":16},"mode":4,"indices":17}]},{"primitives":[{"attributes":{"POSITION":18,"COLOR_0":19},"mode":4,"indices":20}]}],"accessors":[{"bufferView":0,"byteOffset":0,"count":4813,"componentType":5126,"type":"VEC3","min":[0.015000001527369022,0.01250000111758709,-0.0030000000260770321],"max":[0.040000002831220627,0.047500003129243851,0.02499709278345108]},{"bufferView":1,"byteOffset":0,"count":4813,"componentType":5121,"type":"VEC4","normalized":true},{"bufferView":2,"byteOffset":0,"count":28866,"componentType":5125,"type":"SCALAR"},{"bufferView":3,"byteOffset":0,"count":1060,"componentType":5126,"type":"VEC3","min":[0.02200000174343586,0.036966577172279358,0.014859628863632679],"max":[0.024000000208616257,0.042997613549232483,0.022257264703512192]},{"bufferView":4,"byteOffset":0,"count":1060,"componentType":5121,"type":"VEC4","normalized":true},{"bufferView":5,"byteOffset":0,"count":6348,"componentType":5125,"type":"SCALAR"},{"bufferView":6,"byteOffset":0,"count":1060,"componentType":5126,"type":"VEC3","min":[0.026500001549720764,0.036966577172279358,0.014859628863632679],"max":[0.02850000187754631,0.042997613549232483,0.022257264703512192]},{"bufferView":7,"byteOffset":0,"count":1060,"componentType":5121,"type":"VEC4","normalized":true},{"bufferView":8,"byteOffset":0,"count":6348,"componentType":5125,"type":"SCALAR"},{"bufferView":9,"byteOffset":0,"count":1060,"componentType":5126,"type":"VEC3","min":[0.031000001356005669,0.036966577172279358,0.014859628863632679],"max":[0.032999999821186066,0.042997613549232483,0.022257264703512192]},{"bufferView":10,"byteOffset":0,"count":1060,"componentType":5121,"type":"VEC4","normalized":true},{"bufferView":11,"byteOffset":0,"count":6348,"componentType":5125,"type":"SCALAR"},{"bufferView":12,"byteOffset":0,"count":607,"componentType":5126,"type":"VEC3","min":[0.015507320873439312,0.043500002473592758,0.0069924579001963139],"max":[0.018788397312164307,0.045500002801418304,0.010949894785881042]},{"bufferView":13,"byteOffset":0,"count":607,"componentType":5121,"type":"VEC4","normalized":true},{"bufferView":14,"byteOffset":0,"count":3630,"componentType":5125,"type":"SCALAR"},{"bufferView":15,"byteOffset":0,"count":607,"componentType":5126,"type":"VEC3","min":[0.015507320873439312,0.041000001132488251,0.0069924579001963139],"max":[0.018788397312164307,0.0430000014603138,0.010949894785881042]},{"bufferView":16,"byteOffset":0,"count":607,"componentType":5121,"type":"VEC4","normalized":true},{"bufferView":17,"byteOffset":0,"count":3630,"componentType":5125,"type":"SCALAR"},{"bufferView":18,"byteOffset":0,"count":607,"componentType":5126,"type":"VEC3","min":[0.015507320873439312,0.038500003516674042,0.0069924579001963139],"max":[0.018788397312164307,0.04050000011920929,0.010949894785881042]},{"bufferView":19,"byteOffset":0,"count":607,"componentType":5121,"type":"VEC4","normalized":true},{"bufferView":20,"byteOffset":0,"count":3630,"componentType":5125,"type":"SCALAR"}],"bufferViews":[{"buffer":0,"byteOffset":0,"byteLength":57756,"byteStride":12,"target":34962},{"buffer":0,"byteOffset":57756,"byteLength":19252,"byteStride":4,"target":34962},{"buffer":0,"byteOffset":77008,"byteLength":115464,"target":34963},{"buffer":0,"byteOffset":192472,"byteLength":12720,"byteStride":12,"target":34962},{"buffer":0,"byteOffset":205192,"byteLength":4240,"byteStride":4,"target":34962},{"buffer":0,"byteOffset":209432,"byteLength":25392,"target":34963},{"buffer":0,"byteOffset":234824,"byteLength":12720,"byteStride":12,"target":34962},{"buffer":0,"byteOffset":247544,"byteLength":4240,"byteStride":4,"target":34962},{"buffer":0,"byteOffset":251784,"byteLength":25392,"target":34963},{"buffer":0,"byteOffset":277176,"byteLength":12720,"byteStride":12,"target":34962},{"buffer":0,"byteOffset":289896,"byteLength":4240,"byteStride":4,"target":34962},{"buffer":0,"byteOffset":294136,"byteLength":25392,"target":34963},{"buffer":0,"byteOffset":319528,"byteLength":7284,"byteStride":12,"target":34962},{"buffer":0,"byteOffset":326812,"byteLength":2428,"byteStride":4,"target":34962},{"buffer":0,"byteOffset":329240,"byteLength":14520,"target":34963},{"buffer":0,"byteOffset":343760,"byteLength":7284,"byteStride":12,"target":34962},{"buffer":0,"byteOffset":351044,"byteLength":2428,"byteStride":4,"target":34962},{"buffer":0,"byteOffset":353472,"byteLength":14520,"target":34963},{"buffer":0,"byteOffset":367992,"byteLength":7284,"byteStride":12,"target":34962},{"buffer":0,"byteOffset":375276,"byteLength":2428,"byteStride":4,"target":34962},{"buffer":0,"byteOffset":377704,"byteLength":14520,"target":34963}],"buffers":[{"byteLength":392224,"uri":"UPN.bin"}]}