{"asset":{"generator":"3D Builder","version":"2.0"},"scene":0,"scenes":[{"nodes":[0]}],"nodes":[{"children":[1,2,3]},{"mesh":0,"matrix":[0.99999994039535522,0,0,0,0,-1.1920928244535389E-7,-0.99999982118606567,0,0,0.99999982118606567,-1.1920928244535389E-7,0,0,0.0029999995604157448,-3.5762787176096822E-10,1]},{"mesh":1,"matrix":[0.99999994039535522,0,0,0,0,-1.1920928244535389E-7,-0.99999982118606567,0,0,0.99999982118606567,-1.1920928244535389E-7,0,0,0.0029999995604157448,-3.5762787176096822E-10,1]},{"mesh":2,"matrix":[0.99999994039535522,0,0,0,0,-1.1920928244535389E-7,-0.99999982118606567,0,0,0.99999982118606567,-1.1920928244535389E-7,0,0,0.0029999995604157448,-3.5762787176096822E-10,1]}],"meshes":[{"primitives":[{"attributes":{"POSITION":0,"COLOR_0":1},"mode":4,"indices":2}]},{"primitives":[{"attributes":{"POSITION":3,"COLOR_0":4},"mode":4,"indices":5}]},{"primitives":[{"attributes":{"POSITION":6,"COLOR_0":7},"mode":4,"indices":8}]}],"accessors":[{"bufferView":0,"byteOffset":0,"count":1759,"componentType":5126,"type":"VEC3","min":[0.016989221796393394,0.010000000707805157,-0.0030000000260770321],"max":[0.037500001490116119,0.05000000074505806,0.017013171687722206]},{"bufferView":1,"byteOffset":0,"count":1759,"componentType":5121,"type":"VEC4","normalized":true},{"bufferView":2,"byteOffset":0,"count":10542,"componentType":5125,"type":"SCALAR"},{"bufferView":3,"byteOffset":0,"count":323,"componentType":5126,"type":"VEC3","min":[0.0215000007301569,0.044500000774860382,0.0070000002160668373],"max":[0.024500001221895218,0.048500001430511475,0.014000000432133675]},{"bufferView":4,"byteOffset":0,"count":323,"componentType":5121,"type":"VEC4","normalized":true},{"bufferView":5,"byteOffset":0,"count":1926,"componentType":5125,"type":"SCALAR"},{"bufferView":6,"byteOffset":0,"count":288,"componentType":5126,"type":"VEC3","min":[0.026000000536441803,0.01575000025331974,0.0069869500584900379],"max":[0.035732638090848923,0.017250001430511475,0.008750000037252903]},{"bufferView":7,"byteOffset":0,"count":288,"componentType":5121,"type":"VEC4","normalized":true},{"bufferView":8,"byteOffset":0,"count":1716,"componentType":5125,"type":"SCALAR"}],"bufferViews":[{"buffer":0,"byteOffset":0,"byteLength":21108,"byteStride":12,"target":34962},{"buffer":0,"byteOffset":21108,"byteLength":7036,"byteStride":4,"target":34962},{"buffer":0,"byteOffset":28144,"byteLength":42168,"target":34963},{"buffer":0,"byteOffset":70312,"byteLength":3876,"byteStride":12,"target":34962},{"buffer":0,"byteOffset":74188,"byteLength":1292,"byteStride":4,"target":34962},{"buffer":0,"byteOffset":75480,"byteLength":7704,"target":34963},{"buffer":0,"byteOffset":83184,"byteLength":3456,"byteStride":12,"target":34962},{"buffer":0,"byteOffset":86640,"byteLength":1152,"byteStride":4,"target":34962},{"buffer":0,"byteOffset":87792,"byteLength":6864,"target":34963}],"buffers":[{"byteLength":94656,"uri":"UPSV.bin"}]}